<svg width="23" height="21" viewBox="0 0 23 21" fill="none" xmlns="http://www.w3.org/2000/svg">
<path d="M11.6111 1.19387L13.5793 6.97625C13.5793 6.97627 13.5793 6.97628 13.5793 6.9763C13.7862 7.58427 14.3572 7.99297 14.9993 7.99297H21.2661C21.756 7.99297 21.9537 8.62456 21.5511 8.90386C21.551 8.90386 21.551 8.90387 21.551 8.90387L16.5623 12.3637C16.0119 12.7454 15.7814 13.4456 15.9972 14.0796C15.9972 14.0796 15.9972 14.0796 15.9972 14.0796L17.9214 19.7327C18.0768 20.1893 17.5594 20.5796 17.1631 20.3047L17.163 20.3047L11.9925 16.7188L11.9925 16.7187C11.4784 16.3622 10.797 16.3622 10.2829 16.7187L10.2829 16.7188L5.11236 20.3047L5.11235 20.3047C4.71597 20.5796 4.19868 20.1893 4.35412 19.7328L4.35413 19.7327L6.27833 14.0796L6.27836 14.0795C6.49402 13.4456 6.26354 12.7454 5.7131 12.3637L0.72437 8.90387C0.724363 8.90387 0.724355 8.90386 0.724347 8.90386C0.321729 8.62456 0.519421 7.99297 1.0093 7.99297H7.2761C7.91818 7.99297 8.48924 7.58427 8.69614 6.9763C8.69614 6.97628 8.69615 6.97627 8.69615 6.97625L10.6643 1.19387C10.8181 0.742018 11.4573 0.742018 11.6111 1.19387Z" fill="#FFA858" stroke="#FFA858"/>
</svg>
