<svg width="193" height="191" viewBox="0 0 193 191" fill="none" xmlns="http://www.w3.org/2000/svg">
<path d="M111.823 19.5592L127.525 50.9638C129.666 55.3355 135.376 59.5287 140.194 60.3316L168.654 65.0601C186.855 68.0935 191.137 81.2976 178.022 94.3234L155.896 116.449C152.149 120.196 150.097 127.423 151.257 132.598L157.591 159.987C162.587 181.667 151.078 190.054 131.897 178.723L105.221 162.932C100.403 160.077 92.4625 160.077 87.5555 162.932L60.8792 178.723C41.7867 190.054 30.1884 181.578 35.1846 159.987L41.519 132.598C42.6788 127.423 40.6268 120.196 36.8797 116.449L14.7538 94.3234C1.72802 81.2976 5.92124 68.0935 24.1216 65.0601L52.582 60.3316C57.3105 59.5287 63.0204 55.3355 65.1617 50.9638L80.8642 19.5592C89.4291 2.51867 103.347 2.51867 111.823 19.5592Z" stroke="#FFA858" stroke-width="13.3826" stroke-linecap="round" stroke-linejoin="round"/>
</svg>
